<svg width="52" height="52" viewBox="0 0 52 52" fill="none" xmlns="http://www.w3.org/2000/svg">
<g clip-path="url(#clip0_1_13)">
<path d="M26 2.00012C39.2548 2.00012 49.9999 12.7452 49.9999 25.9997C49.9999 39.2548 39.2548 50.0003 26 50.0003C12.7452 50.0003 2.00001 39.2548 2.00001 25.9997C2.00001 12.7452 12.7451 2.00012 26 2.00012Z" fill="black" fill-opacity="0.01" stroke="white" stroke-width="2"/>
<g clip-path="url(#clip1_1_13)">
<path d="M37.9344 21.0561C37.8781 19.7809 37.6719 18.9042 37.3765 18.1445C37.0718 17.3381 36.6029 16.6162 35.9887 16.016C35.3885 15.4065 34.6618 14.9329 33.8648 14.6329C33.1007 14.3375 32.2286 14.1313 30.9534 14.0751C29.6686 14.0141 29.2608 14 26.0023 14C22.7439 14 22.336 14.0141 21.0561 14.0703C19.7809 14.1266 18.9042 14.333 18.1447 14.6282C17.3381 14.9329 16.6162 15.4018 16.016 16.016C15.4065 16.6162 14.9331 17.3429 14.6329 18.1399C14.3375 18.9042 14.1313 19.7761 14.0751 21.0513C14.0141 22.336 14 22.7439 14 26.0023C14 29.2608 14.0141 29.6686 14.0703 30.9486C14.1266 32.2238 14.333 33.1005 14.6284 33.8602C14.9331 34.6666 15.4065 35.3885 16.016 35.9887C16.6162 36.5982 17.3429 37.0718 18.1399 37.3718C18.9042 37.6672 19.7761 37.8734 21.0515 37.9296C22.3313 37.986 22.7393 37.9999 25.9978 37.9999C29.2562 37.9999 29.6641 37.986 30.944 37.9296C32.2193 37.8734 33.0959 37.6672 33.8554 37.3718C35.4684 36.7482 36.7436 35.4729 37.3672 33.8602C37.6624 33.096 37.8688 32.2238 37.925 30.9486C37.9812 29.6686 37.9953 29.2608 37.9953 26.0023C37.9953 22.7439 37.9906 22.336 37.9344 21.0561ZM35.7731 30.8549C35.7215 32.027 35.5246 32.6599 35.3605 33.0819C34.9572 34.1274 34.1274 34.9572 33.0818 35.3605C32.6599 35.5246 32.0224 35.7215 30.8549 35.7729C29.589 35.8293 29.2093 35.8433 26.0071 35.8433C22.8049 35.8433 22.4205 35.8293 21.1592 35.7729C19.9871 35.7215 19.3541 35.5246 18.9322 35.3605C18.4119 35.1682 17.9383 34.8634 17.5539 34.4649C17.1553 34.0758 16.8506 33.6069 16.6583 33.0866C16.4942 32.6647 16.2973 32.027 16.2459 30.8596C16.1895 29.5937 16.1755 29.2139 16.1755 26.0117C16.1755 22.8095 16.1895 22.425 16.2459 21.1639C16.2973 19.9918 16.4942 19.3589 16.6583 18.9369C16.8506 18.4165 17.1553 17.943 17.5586 17.5584C17.9476 17.1599 18.4165 16.8552 18.9369 16.6631C19.3589 16.499 19.9966 16.3021 21.1639 16.2504C22.4298 16.1942 22.8096 16.1801 26.0117 16.1801C29.2187 16.1801 29.5983 16.1942 30.8596 16.2504C32.0317 16.3021 32.6647 16.499 33.0866 16.6631C33.6069 16.8552 34.0805 17.1599 34.4649 17.5584C34.8634 17.9476 35.1682 18.4165 35.3605 18.9369C35.5246 19.3589 35.7215 19.9964 35.7731 21.1639C35.8293 22.4298 35.8434 22.8095 35.8434 26.0117C35.8434 29.2139 35.8293 29.589 35.7731 30.8549Z" fill="white"/>
<path d="M26.0445 19.8372C22.6408 19.8372 19.8792 22.5986 19.8792 26.0024C19.8792 29.4063 22.6408 32.1677 26.0445 32.1677C29.4483 32.1677 32.2097 29.4063 32.2097 26.0024C32.2097 22.5986 29.4483 19.8372 26.0445 19.8372ZM26.0445 30.0017C23.8363 30.0017 22.0452 28.2107 22.0452 26.0024C22.0452 23.7941 23.8363 22.0032 26.0445 22.0032C28.2528 22.0032 30.0437 23.7941 30.0437 26.0024C30.0437 28.2107 28.2528 30.0017 26.0445 30.0017Z" fill="white"/>
<path d="M33.893 19.5931C33.893 20.388 33.2485 21.0324 32.4535 21.0324C31.6587 21.0324 31.0142 20.388 31.0142 19.5931C31.0142 18.7981 31.6587 18.1538 32.4535 18.1538C33.2485 18.1538 33.893 18.7981 33.893 19.5931Z" fill="white"/>
</g>
</g>
<defs>
<clipPath id="clip0_1_13">
<rect width="52" height="52" fill="white"/>
</clipPath>
<clipPath id="clip1_1_13">
<rect width="24" height="24" fill="white" transform="translate(14 14)"/>
</clipPath>
</defs>
</svg>
